<svg xmlns="http://www.w3.org/2000/svg" viewBox="0 0 180.69 158.11"><defs><style>.cls-1{fill:#fff}</style></defs><title>Asset 1quote</title><g id="Layer_2" data-name="Layer 2"><g id="Layer_1-2" data-name="Layer 1"><path class="cls-1" d="M17.24,50.21Q34.47,22.52,77.9,0l5.52,10.34Q61.36,26.2,50.79,37,32.17,55.84,32.17,72.16q0,5.06,2.76,7.81,2.76,3,7.81,3,9-1.15,11.72-1.15A29,29,0,0,1,77.56,92.5q9.08,10.69,9.08,27.46A39,39,0,0,1,76.41,146.5q-10.23,11.61-29.53,11.61-21.37,0-34.13-16T0,102Q0,77.9,17.24,50.21Z"></path><path class="cls-1" d="M111.29,50.21Q128.52,22.52,172,0l5.52,10.34Q155.41,26.2,144.84,37q-18.61,18.84-18.61,35.16,0,5.06,2.76,7.81,2.76,3,7.81,3,9-1.15,11.72-1.15a29,29,0,0,1,23.1,10.69q9.08,10.69,9.08,27.46a39,39,0,0,1-10.23,26.54q-10.23,11.61-29.53,11.61-21.37,0-34.13-16T94.05,102Q94.05,77.9,111.29,50.21Z"></path></g></g></svg>