<?xml version="1.0" encoding="UTF-8" standalone="no"?>
<!-- Generator: Adobe Illustrator 19.1.0, SVG Export Plug-In . SVG Version: 6.00 Build 0)  -->

<svg
   xmlns:dc="http://purl.org/dc/elements/1.1/"
   xmlns:cc="http://creativecommons.org/ns#"
   xmlns:rdf="http://www.w3.org/1999/02/22-rdf-syntax-ns#"
   xmlns:svg="http://www.w3.org/2000/svg"
   xmlns="http://www.w3.org/2000/svg"
   xmlns:sodipodi="http://sodipodi.sourceforge.net/DTD/sodipodi-0.dtd"
   xmlns:inkscape="http://www.inkscape.org/namespaces/inkscape"
   version="1.1"
   id="Layer_1"
   x="0px"
   y="0px"
   viewBox="0 0 213.39999 38.200001"
   xml:space="preserve"
   sodipodi:docname="logo-revenda.svg.svg"
   width="213.39999"
   height="38.200001"
   inkscape:version="0.92.3 (2405546, 2018-03-11)"><metadata
   id="metadata67"><rdf:RDF><cc:Work
       rdf:about=""><dc:format>image/svg+xml</dc:format><dc:type
         rdf:resource="http://purl.org/dc/dcmitype/StillImage" /><dc:title></dc:title></cc:Work></rdf:RDF></metadata><defs
   id="defs65" /><sodipodi:namedview
   pagecolor="#ffffff"
   bordercolor="#666666"
   borderopacity="1"
   objecttolerance="10"
   gridtolerance="10"
   guidetolerance="10"
   inkscape:pageopacity="0"
   inkscape:pageshadow="2"
   inkscape:window-width="1316"
   inkscape:window-height="732"
   id="namedview63"
   showgrid="false"
   fit-margin-top="0"
   fit-margin-left="0"
   fit-margin-right="0"
   fit-margin-bottom="0"
   inkscape:zoom="1.6856283"
   inkscape:cx="80.186554"
   inkscape:cy="-30.027188"
   inkscape:window-x="50"
   inkscape:window-y="0"
   inkscape:window-maximized="1"
   inkscape:current-layer="Layer_1" />
<style
   type="text/css"
   id="style2">
	.st0{fill-rule:evenodd;clip-rule:evenodd;fill:#FFCD32;}
	.st1{fill:#FFFFFF;}
	.st2{fill:#D1D3D4;}
</style>
<path
   style="clip-rule:evenodd;fill:#ffcd32;fill-rule:evenodd"
   d="M 0,0 H 76.399998 V 38.2 H 0 Z"
   id="rect4"
   inkscape:connector-curvature="0" />
<g
   id="g8"
   transform="translate(-45.900002,-335.29999)">
	<path
   d="M 68.9,363.3 H 68 c -0.1,0 -0.2,0 -0.3,-0.1 -0.1,-0.1 -0.1,-0.1 -0.2,-0.2 L 62,349.4 c -0.1,-0.4 -0.3,-0.7 -0.4,-1.1 -0.1,0.4 -0.2,0.8 -0.3,1.1 L 55.7,363 c 0,0.1 -0.1,0.2 -0.2,0.2 -0.1,0.1 -0.2,0.1 -0.3,0.1 H 54.3 L 61,347 h 1 z"
   id="path6"
   inkscape:connector-curvature="0" />
</g>
<g
   id="g12"
   transform="translate(-45.900002,-335.29999)">
	<path
   d="m 85,363.3 h -0.9 c -0.1,0 -0.2,0 -0.3,-0.1 -0.1,-0.1 -0.1,-0.1 -0.2,-0.2 L 78,349.5 c -0.1,-0.4 -0.3,-0.7 -0.4,-1.1 -0.1,0.4 -0.2,0.8 -0.3,1.1 L 71.8,363 c 0,0.1 -0.1,0.2 -0.2,0.2 -0.1,0.1 -0.2,0.1 -0.3,0.1 H 70.4 L 77.1,347 h 1 z"
   id="path10"
   inkscape:connector-curvature="0" />
</g>
<g
   id="g16"
   transform="translate(-45.900002,-335.29999)">
	<path
   d="m 84.6,347 h 1.2 v 16.3 h -1.2 z"
   id="path14"
   inkscape:connector-curvature="0" />
</g>
<g
   id="g20"
   transform="translate(-45.900002,-335.29999)">
	<path
   d="m 69.6,347 h 1.2 v 16.3 h -1.2 z"
   id="path18"
   inkscape:connector-curvature="0" />
</g>
<g
   id="g24"
   transform="translate(-45.900002,-335.29999)">
	<path
   d="m 115,355 c 0,1.3 -0.2,2.4 -0.6,3.5 -0.4,1 -0.9,1.9 -1.6,2.6 -0.7,0.7 -1.5,1.3 -2.5,1.7 -1,0.4 -2,0.6 -3.2,0.6 h -5.9 v -16.6 h 5.9 c 1.2,0 2.2,0.2 3.2,0.6 1,0.4 1.8,0.9 2.5,1.7 0.7,0.7 1.2,1.6 1.6,2.6 0.4,0.9 0.6,2 0.6,3.3 z m -1.2,0 c 0,-1.2 -0.2,-2.2 -0.5,-3.1 -0.3,-0.9 -0.8,-1.7 -1.3,-2.3 -0.6,-0.6 -1.3,-1.1 -2.1,-1.4 -0.8,-0.3 -1.7,-0.5 -2.7,-0.5 h -4.8 v 14.6 h 4.8 c 1,0 1.9,-0.2 2.7,-0.5 0.8,-0.3 1.5,-0.8 2.1,-1.4 0.6,-0.6 1,-1.4 1.3,-2.3 0.3,-0.9 0.5,-2 0.5,-3.1 z"
   id="path22"
   inkscape:connector-curvature="0" />
</g>
<g
   id="g28"
   transform="translate(-45.900002,-335.29999)">
	<path
   class="st1"
   d="m 93.9,346.6 c 0.8,0 1.6,0.1 2.2,0.3 0.6,0.2 1.2,0.5 1.6,0.9 0.4,0.4 0.8,0.8 1,1.3 0.2,0.5 0.3,1 0.3,1.6 0,0.5 -0.1,1 -0.2,1.4 -0.1,0.4 -0.3,0.7 -0.5,1 -0.2,0.3 -0.5,0.5 -0.8,0.7 -0.3,0.2 -0.7,0.4 -1.1,0.5 1.9,0.6 2.8,1.9 2.8,3.7 0,0.9 -0.2,1.6 -0.5,2.3 -0.3,0.6 -0.8,1.2 -1.3,1.6 -0.5,0.4 -1.2,0.7 -1.9,1 -0.7,0.3 -1.5,0.3 -2.2,0.3 -0.8,0 -1.5,-0.1 -2.1,-0.3 -0.6,-0.2 -1.2,-0.4 -1.7,-0.8 -0.5,-0.4 -0.9,-0.8 -1.3,-1.4 -0.4,-0.6 -0.7,-1.2 -1,-2 l 1.6,-0.6 c 0.1,-0.1 0.3,-0.1 0.4,-0.1 0.1,0 0.3,0 0.4,0 0.2,0 0.5,0 0.7,0.1 0.2,0.1 0.3,0.2 0.4,0.4 0.3,0.6 0.7,1.1 1.1,1.3 0.4,0.2 0.8,0.4 1.4,0.4 0.4,0 0.7,-0.1 1,-0.2 0.3,-0.1 0.5,-0.3 0.7,-0.5 0.2,-0.2 0.3,-0.4 0.4,-0.7 0.1,-0.3 0.1,-0.5 0.1,-0.8 0,-0.4 0,-0.7 -0.1,-0.9 -0.1,-0.2 -0.2,-0.5 -0.4,-0.7 -0.2,-0.2 -0.6,-0.4 -1,-0.5 -0.5,-0.1 -1.1,-0.2 -1.9,-0.2 v -2.4 c 0.7,0 1.3,-0.1 1.7,-0.2 0.4,-0.1 0.8,-0.2 1,-0.4 0.2,-0.2 0.4,-0.4 0.5,-0.7 0.1,-0.3 0.1,-0.5 0.1,-0.9 0,-0.6 -0.2,-1.1 -0.5,-1.5 -0.3,-0.3 -0.8,-0.5 -1.5,-0.5 -0.3,0 -0.5,0 -0.7,0.1 -0.2,0.1 -0.4,0.2 -0.6,0.3 -0.2,0.1 -0.3,0.3 -0.5,0.4 -0.1,0.2 -0.2,0.4 -0.3,0.6 -0.1,0.3 -0.3,0.6 -0.5,0.7 -0.2,0.1 -0.4,0.2 -0.8,0.2 -0.1,0 -0.2,0 -0.2,0 0,0 -0.2,0 -0.3,0 l -1.9,-0.3 c 0.1,-0.8 0.4,-1.5 0.7,-2.1 0.3,-0.6 0.8,-1.1 1.3,-1.5 0.5,-0.4 1.1,-0.7 1.8,-0.9 1.1,0.1 1.8,0 2.6,0 z"
   id="path26"
   inkscape:connector-curvature="0"
   style="fill:#ffffff" />
</g>
<g
   id="g34"
   transform="translate(-45.900002,-335.29999)">
	<path
   class="st2"
   d="m 138.6,349.8 h -7.2 v 5.9 h 7.2 v -2.1 h -3.8 V 352 h 6 v 3.2 c 0,0.9 -0.2,1.4 -0.5,1.8 -0.3,0.4 -1,0.5 -1.9,0.5 h -6.8 c -1,0 -1.6,-0.2 -1.9,-0.5 -0.3,-0.3 -0.5,-0.9 -0.5,-1.8 v -5 c 0,-0.9 0.2,-1.4 0.5,-1.8 0.3,-0.3 1,-0.5 1.9,-0.5 h 6.8 c 0.9,0 1.6,0.2 1.9,0.5 0.3,0.3 0.5,0.9 0.5,1.7 v 0.2 l -2.2,0.4 z"
   id="path30"
   inkscape:connector-curvature="0"
   style="fill:#d1d3d4" />
	<path
   class="st2"
   d="m 149.2,349.8 v 7.7 h -2.3 v -7.7 h -4.5 v -1.7 h 11.4 v 1.7 z"
   id="path32"
   inkscape:connector-curvature="0"
   style="fill:#d1d3d4" />
</g>
<g
   id="g40"
   transform="translate(-45.900002,-335.29999)">
	<g
   id="g38">
		<path
   class="st2"
   d="m 188.6,360 c 0.1,-1.5 -1,-1.9 -2.4,-2 -0.3,0 -0.6,0 -0.6,0 v -0.6 c 1.4,-0.1 3.1,-1.1 3.2,-2.4 0,-0.8 -0.5,-1.3 -1.6,-1.4 -1.2,0 -2.1,0.7 -2.1,0.7 l -0.2,-0.4 c 0,0 0.9,-1.3 2.9,-1.2 1.6,0.1 2.8,0.8 2.8,2.1 0,1.3 -1.7,2.3 -3,2.7 2.1,0.2 3.3,1.2 3.2,2.4 -0.1,2.6 -3.3,3.6 -5.9,3.8 -0.1,0.1 -1.8,0.1 -1.8,0.1 l 0.1,-0.7 c 2.1,0 5.3,-0.8 5.4,-3.1 z"
   id="path36"
   inkscape:connector-curvature="0"
   style="fill:#d1d3d4" />
	</g>
</g>
<path
   class="st2"
   d="m 120,21.70001 c -0.2,0 -0.3,0 -0.4,0.1 l -0.7,0.1 -1.4,0.2 c -0.1,0 -0.2,0 -0.3,0 -0.2,0 -0.4,-0.2 -0.4,-0.4 0,-0.2 0.1,-0.5 0.2,-0.9 l 1.1,-4.2 c 0.2,-0.7 0.3,-1.2 0.3,-1.4 l 0.2,-0.7 c -2.5,3.7 -3.5,5.3 -4.1,6.5 l -0.7,0.6 c 0,-1.2 0,-1.4 -0.6,-7 l -1,3.8 c -0.4,1.3 -0.5,1.7 -1,2.3 -0.7,0.8 -1.4,1.2 -2.6,1.2 -0.2,0 -0.4,0 -0.7,0 l 0.7,-1.1 c 0.9,0.1 0.9,0.1 1.1,0.1 0.7,0 1,-0.2 1.3,-0.8 0.3,-0.5 1.1,-3.4 1.8,-6.2 -0.5,-0.1 -0.7,-0.1 -1.1,-0.1 -1.3,0 -2.1,0.6 -2.1,1.6 0,0.5 0.1,0.8 0.5,1.7 l -1.2,0.8 c -0.3,-0.6 -0.3,-1 -0.3,-1.4 0,-0.8 0.5,-1.8 1.3,-2.6 0.7,-0.8 1.3,-1 2.3,-1 0.4,0 0.7,0 1.2,0.1 l 0.5,-0.4 c 0.2,1.1 0.6,4.5 0.8,6.9 l 0.4,-0.6 1.7,-2.6 2.1,-2.9 c 0.5,-0.8 0.7,-0.9 1.6,-1.4 0.5,-0.3 0.9,-0.5 1.3,-0.5 0.2,0 0.3,0 0.6,0.1 l -0.6,0.9 c -0.2,0 -0.4,-0.1 -0.4,-0.1 -0.2,0 -0.4,-0.1 -0.5,-0.1 -0.4,0 -0.5,0.2 -1.1,2.3 l -1,4 c -0.4,1.7 -0.4,1.7 -0.4,2.2 0,0.4 0.3,0.6 0.8,0.6 0.1,0 0.4,0 0.6,0 0.1,0 0.3,0 0.6,0 z"
   id="path42"
   inkscape:connector-curvature="0"
   style="fill:#d1d3d4" />
<g
   id="g46"
   transform="translate(-45.900002,-335.29999)">
	<path
   class="st2"
   d="m 170.4,357.5 c -0.4,0 -0.3,-0.5 -0.2,-1 l 0.1,-0.7 c -0.8,0.6 -2.2,1.7 -2.7,1.7 -0.5,0 -0.7,-0.8 -0.7,-1.3 0,-1 0.3,-2.6 1,-3.8 0.3,-0.5 0.7,-0.6 1.1,-0.9 0.7,-0.5 0.8,-0.6 1.8,-0.6 0.6,0 1.3,0.1 1.8,0.2 -0.1,0.1 -0.4,0.5 -0.4,0.6 -0.2,0.8 -0.9,3.6 -0.9,4.2 0,0.1 0,0.3 0.2,0.3 0.2,0 1.2,-0.7 1.5,-0.9 v 0.5 c -0.4,0.2 -2.2,1.7 -2.6,1.7 z m 0.8,-5.7 c -0.4,-0.1 -0.9,-0.2 -1.2,-0.2 -0.7,0 -0.9,0.5 -1.2,1 -0.4,0.8 -0.7,1.9 -0.7,2.9 0,0.4 0.1,0.8 0.5,0.8 0.4,0 1.4,-0.8 1.9,-1.2 z"
   id="path44"
   inkscape:connector-curvature="0"
   style="fill:#d1d3d4" />
</g>
<g
   id="g50"
   transform="translate(-45.900002,-335.29999)">
	<path
   class="st2"
   d="m 183.1,359.7 -1.8,0.4 -1.3,0.2 c -0.3,0.1 -0.6,0.1 -0.8,0.1 -0.4,0 -0.5,-0.3 -0.8,-1.4 l -1,-4.6 -1,1.2 -1.4,1.7 c -1.3,1.7 -1.9,2.3 -2.6,2.6 -0.5,0.2 -1.2,0.4 -1.9,0.4 -0.3,0 -41.5,0 -42,-0.1 l -0.1,-1.7 c 0.4,0 42.7,0.1 42.9,0.1 1.1,0 1.7,-0.2 2.3,-0.8 0.5,-0.5 1.7,-2 3.5,-4.3 -0.3,-1.4 -0.6,-2.7 -1,-4 -0.2,-0.7 -0.6,-1 -1.3,-1 -0.3,0 -0.3,0 -1.2,0.2 -0.1,0 -0.3,0.1 -0.6,0.1 l 0.5,-0.7 c 2.2,-0.6 3.2,-0.9 3.6,-0.9 0.3,0 0.4,0.1 0.5,0.5 l 0.9,4.1 2.3,-2.9 c 1,-1.4 1.7,-1.8 2.7,-1.8 0.5,0 0.8,0.1 1.3,0.5 l -1,1.6 c -0.4,-0.2 -0.7,-0.3 -1,-0.3 -0.7,0 -1.4,0.5 -2.4,1.7 l -1.8,2.1 0.2,1 c 0.7,2.9 0.9,3.9 1.3,4.7 0.3,0.6 0.9,1 1.7,0.9 0.2,0 0.6,0 1,-0.1 0.1,0 0.3,0 0.6,-0.1 z"
   id="path48"
   inkscape:connector-curvature="0"
   style="fill:#d1d3d4" />
</g>
<g
   id="g54"
   transform="translate(-45.900002,-335.29999)">
	<path
   class="st2"
   d="m 191.4,359.6 c 0.7,-0.1 1.2,-0.4 1.3,-1 l 1.4,-7.7 c 0.1,-0.8 0.1,-0.9 -1.1,-1.2 l 0.1,-0.4 h 4.4 c 3.1,0 5.9,1.2 5.2,5 -0.6,3.6 -3.7,5.8 -7.7,5.8 h -1.3 c -0.8,0 -2.3,0 -2.3,0 z m 3.7,-0.2 c 3.8,0 5.2,-2 5.7,-4.7 0.5,-2.8 -0.5,-4.8 -3.5,-4.8 h -1.4 l -0.2,0.2 -1.5,8.4 c -0.1,0.5 -0.2,0.9 -0.2,0.9 z"
   id="path52"
   inkscape:connector-curvature="0"
   style="fill:#d1d3d4" />
</g>
<path
   class="st2"
   d="m 212.8,23.00001 c -2.3,2.3 -6.2,2.3 -8.5,0 -2.3,-2.3 -2.3,-6.2 0,-8.5 2.3,-2.3 6.2,-2.3 8.5,0 l 0.6,0.6 -5.5,5.5 -1.1,-1.1 4.4,-4.4 c -1.7,-1.2 -4.1,-1 -5.7,0.5 -1.7,1.7 -1.7,4.6 0,6.3 1.7,1.7 4.6,1.7 6.3,0 z m -13.5,-8.9 v 4.6 c 0,2.5 -2,4.5 -4.5,4.5 -2.5,0 -4.5,-2 -4.5,-4.5 v -4.6 h -1.6 v 4.6 c 0,3.4 2.8,6.1 6.1,6.1 3.4,0 6.1,-2.8 6.1,-6.1 v -4.6 z m -18.4,-1.6 h -6 v 8.1 l 0.7,0.7 0.9,0.9 v -8.1 h 4.4 c 2.5,0 4.5,2 4.5,4.5 0,2.5 -2,4.5 -4.5,4.5 h -3.5 l 1.6,1.6 h 1.9 c 3.4,0 6.1,-2.8 6.1,-6.1 0,-3.4 -2.7,-6.1 -6.1,-6.1"
   id="path56"
   inkscape:connector-curvature="0"
   style="fill:#d1d3d4" />
<g
   id="g60"
   transform="translate(-45.900002,-335.29999)">
	<path
   class="st2"
   d="m 211.2,349.3 c 0.4,0 0.7,0.1 1,0.2 0.3,0.1 0.6,0.3 0.8,0.5 0.2,0.2 0.4,0.4 0.5,0.7 0.1,0.3 0.2,0.5 0.2,0.8 l -0.8,0.2 c 0,0 0,0 -0.1,0 -0.1,0 -0.1,0 -0.2,-0.1 -0.1,0 -0.1,-0.1 -0.1,-0.2 0,-0.1 -0.1,-0.3 -0.2,-0.4 -0.1,-0.1 -0.2,-0.3 -0.3,-0.4 -0.1,-0.1 -0.3,-0.2 -0.4,-0.3 -0.2,-0.1 -0.4,-0.1 -0.6,-0.1 -0.2,0 -0.5,0 -0.7,0.1 -0.2,0.1 -0.4,0.2 -0.5,0.3 -0.1,0.1 -0.2,0.3 -0.3,0.5 -0.1,0.2 -0.1,0.4 -0.1,0.6 0,0.2 0,0.3 0.1,0.5 0,0.2 0.1,0.3 0.2,0.5 0.1,0.2 0.2,0.3 0.3,0.5 0.1,0.2 0.3,0.3 0.5,0.5 l 3,3.1 c 0.2,-0.3 0.3,-0.7 0.4,-1 0.1,-0.3 0.2,-0.7 0.2,-1.1 0,-0.1 0,-0.2 0.1,-0.2 0,-0.1 0.1,-0.1 0.2,-0.1 h 0.8 c 0,0.6 -0.1,1.1 -0.3,1.6 -0.2,0.5 -0.4,1 -0.7,1.5 l 2.2,2.2 h -1.3 c -0.1,0 -0.3,0 -0.3,-0.1 -0.1,0 -0.2,-0.1 -0.3,-0.2 l -1,-1.1 c -0.5,0.4 -1,0.8 -1.6,1 -0.6,0.2 -1.2,0.4 -2,0.4 -0.4,0 -0.8,-0.1 -1.1,-0.2 -0.4,-0.1 -0.7,-0.3 -1,-0.6 -0.3,-0.3 -0.5,-0.6 -0.7,-0.9 -0.2,-0.4 -0.3,-0.8 -0.3,-1.2 0,-0.3 0.1,-0.7 0.2,-1 0.1,-0.3 0.3,-0.6 0.5,-0.8 0.2,-0.3 0.4,-0.5 0.7,-0.7 0.3,-0.2 0.6,-0.4 0.9,-0.5 -0.3,-0.4 -0.5,-0.7 -0.7,-1.1 -0.1,-0.4 -0.2,-0.7 -0.2,-1.1 0,-0.4 0.1,-0.7 0.2,-1 0.1,-0.3 0.3,-0.6 0.6,-0.8 0.2,-0.2 0.5,-0.4 0.9,-0.5 0.5,0 0.9,0 1.3,0 z m -2.9,7.6 c 0,0.3 0.1,0.6 0.2,0.8 0.1,0.2 0.3,0.4 0.5,0.6 0.2,0.2 0.4,0.3 0.6,0.4 0.2,0.1 0.5,0.1 0.7,0.1 0.5,0 1,-0.1 1.5,-0.3 0.4,-0.2 0.8,-0.5 1.1,-0.8 l -3.1,-3.1 c -0.5,0.3 -0.9,0.6 -1.2,1 -0.2,0.4 -0.3,0.9 -0.3,1.3 z"
   id="path58"
   inkscape:connector-curvature="0"
   style="fill:#d1d3d4" />
</g>
</svg>