<?xml version="1.0" standalone="no"?>
<!DOCTYPE svg PUBLIC "-//W3C//DTD SVG 20010904//EN"
 "http://www.w3.org/TR/2001/REC-SVG-20010904/DTD/svg10.dtd">
<svg version="1.0" xmlns="http://www.w3.org/2000/svg"
 width="300.000000pt" height="300.000000pt" viewBox="0 0 300.000000 300.000000"
 preserveAspectRatio="xMidYMid meet">
<metadata>
Created by potrace 1.11, written by Peter Selinger 2001-2013
</metadata>
<g transform="translate(0.000000,300.000000) scale(0.100000,-0.100000)"
fill="#000000" stroke="none">
<path d="M2200 1495 l0 -355 160 0 c135 0 167 3 213 20 76 29 130 79 169 158
31 63 33 72 33 177 0 105 -2 114 -33 177 -39 79 -93 129 -169 158 -46 17 -78
20 -213 20 l-160 0 0 -355z m339 299 c120 -35 184 -139 184 -299 0 -116 -25
-186 -87 -243 -61 -56 -121 -72 -268 -72 l-118 0 0 315 0 315 118 0 c78 0 136
-5 171 -16z"/>
<path d="M472 1768 c-24 -59 -229 -565 -249 -616 -4 -10 2 -13 23 -10 28 3 33
13 154 314 l125 311 125 -311 c121 -301 126 -311 154 -314 21 -3 27 0 23 10
-4 10 -250 617 -274 676 -3 6 -15 12 -28 12 -19 0 -28 -12 -53 -72z"/>
<path d="M860 1490 l0 -350 44 0 c24 0 48 6 53 13 6 6 64 148 130 313 l120
302 125 -312 125 -311 46 -3 47 -3 0 350 0 351 -30 0 -30 0 -2 -314 -3 -314
-126 311 c-114 284 -128 312 -150 315 -24 3 -31 -12 -159 -330 l-135 -333 -3
333 -2 332 -25 0 -25 0 0 -350z"/>
</g>
</svg>
